G04 DipTrace 3.1.0.1*
G04 TopSilk.gbr*
%MOIN*%
G04 #@! TF.FileFunction,Legend,Top*
G04 #@! TF.Part,Single*
%ADD10C,0.009843*%
%ADD38C,0.00772*%
%FSLAX26Y26*%
G04*
G70*
G90*
G75*
G01*
G04 TopSilk*
%LPD*%
X727640Y943429D2*
D10*
Y994571D1*
Y843429D2*
Y894571D1*
Y1068429D2*
Y1119571D1*
X720191Y760733D2*
Y548133D1*
X846163Y760733D2*
Y548133D1*
X720191D2*
X846163D1*
X720191Y760733D2*
X763488D1*
X802866D2*
X846163D1*
X763488D2*
G03X802866Y760733I19689J23D01*
G01*
X519002Y1218963D2*
X419000D1*
Y419037D1*
X519002D1*
Y1218963D1*
X1119002D2*
X1019000D1*
Y419037D1*
X1119002D1*
Y1218963D1*
X662497Y1071751D2*
D38*
Y1021511D1*
X684052D1*
X691237Y1023942D1*
X693614Y1026319D1*
X695990Y1031072D1*
Y1038257D1*
X693614Y1043066D1*
X691237Y1045442D1*
X684052Y1047819D1*
X691237Y1050251D1*
X693614Y1052627D1*
X695990Y1057381D1*
Y1062189D1*
X693614Y1066942D1*
X691237Y1069374D1*
X684052Y1071751D1*
X662497D1*
Y1047819D2*
X684052D1*
X711429Y1055004D2*
Y1031072D1*
X713806Y1023942D1*
X718614Y1021511D1*
X725800D1*
X730553Y1023942D1*
X737738Y1031072D1*
Y1055004D2*
Y1021511D1*
X753177Y1071751D2*
Y1021511D1*
X768616Y1071751D2*
Y1021511D1*
X792548Y1055004D2*
X768616Y1031072D1*
X778178Y1040634D2*
X794925Y1021511D1*
X846234Y1059812D2*
X843857Y1064566D1*
X839049Y1069374D1*
X834295Y1071751D1*
X824734D1*
X819925Y1069374D1*
X815172Y1064566D1*
X812740Y1059812D1*
X810364Y1052627D1*
Y1040634D1*
X812740Y1033504D1*
X815172Y1028696D1*
X819925Y1023942D1*
X824734Y1021511D1*
X834295D1*
X839049Y1023942D1*
X843857Y1028696D1*
X846234Y1033504D1*
X890358Y1055004D2*
Y1021511D1*
Y1047819D2*
X885605Y1052627D1*
X880796Y1055004D1*
X873666D1*
X868858Y1052627D1*
X864105Y1047819D1*
X861673Y1040634D1*
Y1035881D1*
X864105Y1028696D1*
X868858Y1023942D1*
X873666Y1021511D1*
X880796D1*
X885605Y1023942D1*
X890358Y1028696D1*
X905797Y1055004D2*
Y1004764D1*
Y1047819D2*
X910606Y1052572D1*
X915359Y1055004D1*
X922544D1*
X927352Y1052572D1*
X932105Y1047819D1*
X934537Y1040634D1*
Y1035825D1*
X932105Y1028696D1*
X927352Y1023887D1*
X922544Y1021511D1*
X915359D1*
X910606Y1023887D1*
X905797Y1028696D1*
X606352Y971751D2*
Y921511D1*
X627907D1*
X635092Y923942D1*
X637468Y926319D1*
X639845Y931072D1*
Y938257D1*
X637468Y943066D1*
X635092Y945442D1*
X627907Y947819D1*
X635092Y950251D1*
X637468Y952627D1*
X639845Y957381D1*
Y962189D1*
X637468Y966942D1*
X635092Y969374D1*
X627907Y971751D1*
X606352D1*
Y947819D2*
X627907D1*
X657716Y955004D2*
X672031Y921511D1*
X667278Y911949D1*
X662469Y907141D1*
X657716Y904764D1*
X655284D1*
X686401Y955004D2*
X672031Y921511D1*
X701840Y955004D2*
Y904764D1*
Y947819D2*
X706649Y952572D1*
X711402Y955004D1*
X718587D1*
X723395Y952572D1*
X728148Y947819D1*
X730580Y940634D1*
Y935825D1*
X728148Y928696D1*
X723395Y923887D1*
X718587Y921511D1*
X711402D1*
X706649Y923887D1*
X701840Y928696D1*
X774704Y955004D2*
Y921511D1*
Y947819D2*
X769951Y952627D1*
X765143Y955004D1*
X758013D1*
X753205Y952627D1*
X748451Y947819D1*
X746020Y940634D1*
Y935881D1*
X748451Y928696D1*
X753205Y923942D1*
X758013Y921511D1*
X765143D1*
X769951Y923942D1*
X774704Y928696D1*
X816452Y947819D2*
X814075Y952627D1*
X806890Y955004D1*
X799705D1*
X792520Y952627D1*
X790144Y947819D1*
X792520Y943066D1*
X797329Y940634D1*
X809267Y938257D1*
X814075Y935881D1*
X816452Y931072D1*
Y928696D1*
X814075Y923942D1*
X806890Y921511D1*
X799705D1*
X792520Y923942D1*
X790144Y928696D1*
X858200Y947819D2*
X855823Y952627D1*
X848638Y955004D1*
X841453D1*
X834268Y952627D1*
X831891Y947819D1*
X834268Y943066D1*
X839076Y940634D1*
X851015Y938257D1*
X855823Y935881D1*
X858200Y931072D1*
Y928696D1*
X855823Y923942D1*
X848638Y921511D1*
X841453D1*
X834268Y923942D1*
X831891Y928696D1*
X902379Y947819D2*
X897571Y952627D1*
X892762Y955004D1*
X885632D1*
X880824Y952627D1*
X876071Y947819D1*
X873639Y940634D1*
Y935881D1*
X876071Y928696D1*
X880824Y923942D1*
X885632Y921511D1*
X892762D1*
X897571Y923942D1*
X902379Y928696D1*
X946503Y955004D2*
Y921511D1*
Y947819D2*
X941750Y952627D1*
X936941Y955004D1*
X929812D1*
X925003Y952627D1*
X920250Y947819D1*
X917818Y940634D1*
Y935881D1*
X920250Y928696D1*
X925003Y923942D1*
X929812Y921511D1*
X936941D1*
X941750Y923942D1*
X946503Y928696D1*
X961942Y955004D2*
Y904764D1*
Y947819D2*
X966751Y952572D1*
X971504Y955004D1*
X978689D1*
X983497Y952572D1*
X988251Y947819D1*
X990683Y940634D1*
Y935825D1*
X988251Y928696D1*
X983497Y923887D1*
X978689Y921511D1*
X971504D1*
X966751Y923887D1*
X961942Y928696D1*
X590181Y1026136D2*
Y1047635D1*
X587749Y1054820D1*
X585373Y1057252D1*
X580620Y1059629D1*
X575811D1*
X571058Y1057252D1*
X568626Y1054820D1*
X566249Y1047635D1*
Y1026136D1*
X616489D1*
X590181Y1042882D2*
X616489Y1059629D1*
X575866Y1075068D2*
X573434Y1079876D1*
X566305Y1087062D1*
X616489Y1087061D1*
X802736Y1184812D2*
X800359Y1189566D1*
X795551Y1194374D1*
X790797Y1196751D1*
X781236D1*
X776427Y1194374D1*
X771674Y1189566D1*
X769242Y1184812D1*
X766866Y1177627D1*
Y1165634D1*
X769242Y1158504D1*
X771674Y1153696D1*
X776427Y1148942D1*
X781236Y1146511D1*
X790797D1*
X795551Y1148942D1*
X800359Y1153696D1*
X802736Y1158504D1*
X818175Y1187134D2*
X822983Y1189566D1*
X830168Y1196695D1*
Y1146511D1*
X752714Y833956D2*
Y798086D1*
X755091Y790901D1*
X759899Y786148D1*
X767084Y783716D1*
X771837D1*
X779022Y786148D1*
X783831Y790901D1*
X786207Y798086D1*
Y833956D1*
X801647Y824339D2*
X806455Y826771D1*
X813640Y833901D1*
Y783716D1*
X494710Y1311121D2*
Y1272874D1*
X492334Y1265689D1*
X489902Y1263313D1*
X485148Y1260881D1*
X480340D1*
X475587Y1263313D1*
X473210Y1265689D1*
X470778Y1272874D1*
Y1277627D1*
X510149Y1301504D2*
X514958Y1303936D1*
X522143Y1311065D1*
Y1260881D1*
X1083960Y1311121D2*
Y1272874D1*
X1081584Y1265689D1*
X1079152Y1263313D1*
X1074399Y1260881D1*
X1069590D1*
X1064837Y1263313D1*
X1062460Y1265689D1*
X1060028Y1272874D1*
Y1277627D1*
X1101831Y1299127D2*
Y1301504D1*
X1104208Y1306312D1*
X1106584Y1308689D1*
X1111393Y1311065D1*
X1120955D1*
X1125708Y1308689D1*
X1128084Y1306312D1*
X1130516Y1301504D1*
Y1296751D1*
X1128084Y1291942D1*
X1123331Y1284812D1*
X1099399Y1260881D1*
X1132893D1*
M02*
